# xmcd CD database file
#
# Track frame offsets:
#	150
#	18592
#	45861
#	66205
#	82693
#	100794
#	126187
#	149878
#	167671
#
# Disc length: 2601 seconds
#
# Revision: 0
# Processed by: cddbd v1.5.2PL0 Copyright (c) Steve Scherf et al.
# Submitted via: CDex 1.70beta2
#
DISCID=700a2709
DTITLE=C-CLAYS - 花蝶風月 ～KACHOU FUUGETU～
DYEAR=2007
DGENRE=東方アレンジ
TTITLE0=G Free [花]
TTITLE1=プレインエイジア [蝶]
TTITLE2=月面ツアーへようこそ [月]
TTITLE3=衛星カフェテラス [蝶]
TTITLE4=向こう側の月 [風]
TTITLE5=無何有の郷　～ Deep Mountain [月]
TTITLE6=桜花之恋塚　～ Flower of Japan [花]
TTITLE7=天空のグリニッジ[風]
TTITLE8=Illusion ''The Crimson Square'' [蝶]
EXTD=YEAR: 2007
EXTT0=
EXTT1=
EXTT2=
EXTT3=
EXTT4=
EXTT5=
EXTT6=
EXTT7=
EXTT8=
PLAYORDER=
